<svg width="64" height="64" xmlns="http://www.w3.org/2000/svg"><g fill="none" fill-rule="evenodd"><path d="M28.5 46.5c4.667 3 9.333 4.5 14 4.5-2-.333-4-1.833-6-4.5h-8z" fill="#000D41"/><path d="M12.854 54.854C15.424 52.282 18.63 51 22.5 51c4.313 0 6.5-2.917 6.5-8.5a.5.5 0 1 0-1 0c0 5.083-1.813 7.5-5.5 7.5-4.13 0-7.592 1.384-10.354 4.146a.5.5 0 0 0 .708.708zM52.146 54.854C49.576 52.282 46.37 51 42.5 51c-4.313 0-6.5-2.917-6.5-8.5a.5.5 0 1 1 1 0c0 5.083 1.813 7.5 5.5 7.5 4.13 0 7.592 1.384 10.354 4.146a.5.5 0 0 1-.708.708z" fill="#000D41" fill-rule="nonzero"/><circle fill="#0080FF" cx="32.5" cy="14.5" r="6"/><path d="M32.5 21a6.5 6.5 0 1 1 0-13 6.5 6.5 0 0 1 0 13zm0-1a5.5 5.5 0 1 0 0-11 5.5 5.5 0 0 0 0 11z" fill="#000D41" fill-rule="nonzero"/><circle fill="#0080FF" cx="32.5" cy="26.5" r="14"/><path d="M32.5 41C24.492 41 18 34.508 18 26.5S24.492 12 32.5 12 47 18.492 47 26.5 40.508 41 32.5 41zm0-1C39.956 40 46 33.956 46 26.5S39.956 13 32.5 13 19 19.044 19 26.5 25.044 40 32.5 40z" fill="#000D41" fill-rule="nonzero"/><path d="M22.12 36.476a3 3 0 0 1-.496-5.846c.268-.781.876-1.01.876-4.13 0-4 5.869-8 10-8 4.13 0 10 2 10 6 0 3.355.702 4.708.929 6.147a3.001 3.001 0 0 1-.55 5.83C41.374 42.314 37.295 46.5 32.499 46.5c-4.795 0-8.874-4.185-10.38-10.024z" fill="#FFF"/><path d="M32.5 46.5c4.795 0 8.874-4.185 10.379-10.024a3 3 0 0 0 .55-5.83c-.227-1.438-.929-2.79-.929-6.146 0-4-5.87-6-10-6-4.131 0-10 4-10 8 0 3.12-.608 3.349-.876 4.13a3.001 3.001 0 0 0 .496 5.846C23.625 42.315 27.704 46.5 32.5 46.5zm-14-13c0-1.606.955-3.026 2.377-3.657-.006.012.175-.335.218-.426.264-.561.405-1.34.405-2.917 0-4.404 6.078-9 11-9 5.562 0 11 2.741 11 7 0 1.627.154 2.777.47 4.07.05.2.22.86.22.862.047.187.086.35.12.5a4.001 4.001 0 0 1-.627 7.39C41.923 43.36 37.552 47.5 32.5 47.5c-5.052 0-9.424-4.14-11.184-10.178A4.002 4.002 0 0 1 18.5 33.5z" fill="#000D41" fill-rule="nonzero"/><circle fill="#44C2D8" cx="20.5" cy="38.5" r="2"/><circle fill="#44C2D8" cx="44.5" cy="38.5" r="2"/><path d="M20.5 41a2.5 2.5 0 1 1 0-5 2.5 2.5 0 0 1 0 5zm0-1a1.5 1.5 0 1 0 0-3 1.5 1.5 0 0 0 0 3zM44.5 41a2.5 2.5 0 1 1 0-5 2.5 2.5 0 0 1 0 5zm0-1a1.5 1.5 0 1 0 0-3 1.5 1.5 0 0 0 0 3z" fill="#000D41" fill-rule="nonzero"/></g></svg>