<svg width="64" height="64" xmlns="http://www.w3.org/2000/svg"><g fill="none" fill-rule="evenodd"><path fill="#62AA85" d="M10 25h32v24H10z"/><path d="M11 26v22h30V26H11zm-1-1h32v24H10V25z" fill="#000D41" fill-rule="nonzero"/><circle fill="#000D41" cx="13" cy="28" r="1"/><circle fill="#000D41" cx="16" cy="28" r="1"/><circle fill="#000D41" cx="19" cy="28" r="1"/><path fill="#FFF" d="M10 30h32v19H10z"/><path d="M11 48h30V31H11v17zm-1-18h32v19H10V30z" fill="#000D41" fill-rule="nonzero"/><path d="M44 17v8h8a8 8 0 1 1-8-8z" fill="#0080FF"/><path d="M37 25a7 7 0 0 0 13.93 1H43v-7.93A7.002 7.002 0 0 0 37 25zm7-8v8h8a8 8 0 1 1-8-8z" fill="#000D41" fill-rule="nonzero"/><path d="M46 15a8 8 0 0 1 8 8h-8v-8z" fill="#62AA85"/><path d="M47 16.07V22h5.93A7.005 7.005 0 0 0 47 16.07zM46 15a8 8 0 0 1 8 8h-8v-8zM14.354 43.354c.637-.638 3.305-2.639 7.937-5.947 1.552-1.109 2.584-1.41 3.274-1.141.516.2.85.639 1.45 1.769l.056.104c.65 1.226 1.02 1.734 1.708 2.07.918.45 2.044.207 3.5-.77 1.33-.892 2.07-1.151 2.313-1.021.144.077.23.413.302 1.34.032.412.042.537.066.744.22 1.944 1.03 2.998 3.04 2.998a.5.5 0 1 0 0-1c-1.405 0-1.877-.615-2.047-2.11-.021-.192-.031-.31-.062-.709-.104-1.34-.228-1.823-.827-2.145-.7-.376-1.709-.023-3.343 1.073-1.19.798-1.965.965-2.502.702-.425-.207-.718-.61-1.265-1.64l-.055-.105c-.715-1.347-1.147-1.912-1.972-2.232-1.073-.417-2.42-.025-4.218 1.26-4.701 3.357-7.366 5.356-8.063 6.052a.5.5 0 0 0 .708.708z" fill="#000D41" fill-rule="nonzero"/></g></svg>