<svg width="64" height="64" xmlns="http://www.w3.org/2000/svg"><g fill="none" fill-rule="evenodd"><path d="M44 21h4a4 4 0 0 1 4 4v20a4 4 0 0 1-4 4h-4V21z" fill="#0080FF"/><path d="M16 22a3 3 0 0 0-3 3v20a3 3 0 0 0 3 3h32a3 3 0 0 0 3-3V25a3 3 0 0 0-3-3H16zm0-1h32a4 4 0 0 1 4 4v20a4 4 0 0 1-4 4H16a4 4 0 0 1-4-4V25a4 4 0 0 1 4-4z" fill="#000D41" fill-rule="nonzero"/><path d="M26.416 20.723l-4-6a.5.5 0 1 0-.832.554l4 6a.5.5 0 1 0 .832-.554zM30.4 21.3l6-8a.5.5 0 0 0-.8-.6l-6 8a.5.5 0 0 0 .8.6z" fill="#000D41" fill-rule="nonzero"/><path fill="#000D41" d="M44 21h1v28h-1z"/><circle fill="#000D41" cx="48" cy="27" r="2"/><circle fill="#000D41" cx="48" cy="33" r="2"/><rect fill="#76E5FF" x="15" y="24" width="27" height="22" rx="2"/><path d="M17 25a1 1 0 0 0-1 1v18a1 1 0 0 0 1 1h23a1 1 0 0 0 1-1V26a1 1 0 0 0-1-1H17zm0-1h23a2 2 0 0 1 2 2v18a2 2 0 0 1-2 2H17a2 2 0 0 1-2-2V26a2 2 0 0 1 2-2z" fill="#000D41" fill-rule="nonzero"/><path d="M30.3 41.4l8-6a.5.5 0 0 0-.6-.8l-8 6a.5.5 0 0 0 .6.8zM20.3 35.4l8-6a.5.5 0 0 0-.6-.8l-8 6a.5.5 0 0 0 .6.8z" fill="#FFF" fill-rule="nonzero"/><path d="M17 25a1 1 0 0 0-1 1v18a1 1 0 0 0 1 1h23a1 1 0 0 0 1-1V26a1 1 0 0 0-1-1H17zm0-1h23a2 2 0 0 1 2 2v18a2 2 0 0 1-2 2H17a2 2 0 0 1-2-2V26a2 2 0 0 1 2-2z" fill="#000D41" fill-rule="nonzero"/><path d="M18 49h6l-4 2.004c-.833.501-1.5.501-2 0-.5-.5-.5-1.169 0-2.004zM46 49h-6l4 2.004c.833.501 1.5.501 2 0 .5-.5.5-1.169 0-2.004z" fill="#000D41"/></g></svg>